<svg xmlns="http://www.w3.org/2000/svg" viewBox="0 0 24 24" width="24" height="24">
  <path d="M12 2a4 4 0 0 0-4 4c0 1.3.5 2.5 1.3 3.4.5.5 1.1.8 1.7 1.2.3.2.6.5.9.7.3.3.6.6 1 1.1.3.4.7.7 1.1 1.1.4.4.9.7 1.4.8s1 .1 1.5-.2c.3-.2.6-.5.8-.8.3-.4.6-.8.9-1.2s.6-.8.9-1.2c.2-.3.4-.6.7-.8C16.5 8.5 17 7.3 17 6a4 4 0 0 0-4-4zM7.2 6a5.5 5.5 0 0 1 2.8-2.2A5.5 5.5 0 0 1 12 6a5.5 5.5 0 0 1-2.2 2.8A5.5 5.5 0 0 1 7.2 6zm2.8 8h-1v-2h1v2zm-1 2v-1h1v1h-1zm4.2-2h-1v-2h1v2zm-1 2v-1h1v1h-1zm2.5-1c-.3.3-.6.7-.9 1s-.7.6-1.1.7-.8.1-1.1-.2c-.3-.2-.6-.5-.8-.8-.3-.4-.5-.8-.7-1.2-.2-.3-.3-.7-.4-1s-.1-.7-.2-1c-.2-.3-.4-.6-.6-.8s-.5-.4-.8-.5c-.3-.1-.7-.1-1.1-.1-.3 0-.7.1-1 .2s-.7.4-1 .7-.6.7-.8 1.2-.2.9-.2 1.4c.1.5.3 1 .5 1.5.3.4.7.8 1.1 1.1.5.4 1 .7 1.5.8s1 .1 1.5-.2c.3-.2.6-.5.8-.8.3-.4.5-.8.7-1.2.2-.3.4-.7.6-1 .2-.3.4-.6.7-.8.3-.2.6-.4 1-.4s.7.1 1 .3.6.4.8.7.5.7.6 1.1.3.9.4 1.4.2.9.1 1.4-.2.8-.5 1.1-1 .8-1.6.7z"/>
</svg>